<?xml version="1.0" encoding="UTF-8"?>
<svg width="150px" height="22px" viewBox="0 0 150 22" version="1.1" xmlns="http://www.w3.org/2000/svg" xmlns:xlink="http://www.w3.org/1999/xlink">
    <title>logo</title>
    <defs>
        <linearGradient x1="49.9997575%" y1="0.303105792%" x2="-18.9455358%" y2="69.0393557%" id="linearGradient-1">
            <stop stop-color="#00E8A2" offset="0%"></stop>
            <stop stop-color="#00ADE8" offset="100%"></stop>
        </linearGradient>
    </defs>
    <g id="final" stroke="none" stroke-width="1" fill="none" fill-rule="evenodd">
        <g id="v3" transform="translate(-20.000000, -19.000000)" fill-rule="nonzero">
            <g id="logo" transform="translate(20.000000, 19.000000)">
                <path d="M16.2021,0.384308 C13.7686,0.384308 11.7834,2.36955 11.7193,4.80306 L11.7193,9.73414 C11.271,9.73414 10.8228,9.79818 10.3104,9.79818 C9.79811,9.79818 9.34983,9.79818 8.90155,9.86222 L8.90155,4.80306 C8.90155,2.36955 6.85228,0.384308 4.35472,0.448348 C1.98524,0.448348 0.06404,2.43359 0,4.80306 L0,16.5864 C0.06404,19.0199 2.04928,21.0052 4.54684,20.9411 C6.98036,20.8771 8.90155,18.9559 8.90155,16.5864 L8.90155,11.6553 C9.34983,11.6553 9.79811,11.5913 10.3104,11.5913 C10.8228,11.5913 11.271,11.5913 11.7193,11.5273 L11.7193,16.5224 C11.7834,18.9559 13.7686,20.9411 16.2661,20.8771 C18.6997,20.8131 20.6209,18.8919 20.6209,16.5224 L20.6209,4.80306 C20.6209,2.36955 18.6356,0.384308 16.2021,0.384308 Z M4.4828,2.17743 C5.95572,2.17743 7.10844,3.33015 7.10844,4.80306 L7.10844,9.9903 C5.82764,10.1824 4.54684,10.5667 3.33008,11.079 C2.81776,11.3351 2.30544,11.5913 1.85716,11.9755 L1.85716,4.80306 C1.85716,3.39419 3.00988,2.17743 4.4828,2.17743 Z M7.10844,16.5864 C7.10844,18.0593 5.95572,19.2121 4.4828,19.2121 C3.00988,19.2121 1.85716,18.0593 1.85716,16.5864 L1.85716,15.4337 C1.85716,14.4091 2.68968,13.3844 4.09856,12.8081 C5.05916,12.3598 6.0838,12.1036 7.17248,11.9115 L7.10844,16.5864 Z M16.2021,19.2121 C14.7292,19.2121 13.5765,18.0593 13.5765,16.5864 L13.5765,11.3992 C14.8573,11.2071 16.1381,10.8228 17.3548,10.3105 C17.8671,10.0543 18.3795,9.79818 18.8277,9.41394 L18.8277,16.5864 C18.8277,18.0593 17.611,19.2121 16.2021,19.2121 Z M16.5863,8.64546 C15.6257,9.09374 14.6011,9.3499 13.5124,9.54202 L13.5124,4.80306 C13.5124,3.33015 14.6652,2.17743 16.1381,2.17743 C17.611,2.17743 18.7637,3.33015 18.7637,4.80306 L18.7637,5.95578 C18.8277,7.04446 17.9952,8.00506 16.5863,8.64546 Z" id="Shape" fill="url(#linearGradient-1)"></path>
                <path d="M80.1781,7.4924 C77.4243,7.4924 75.1189,9.7338 75.1829,12.5516 C75.1829,15.3053 77.4243,17.6107 80.2421,17.5467 C82.9958,17.5467 85.2372,15.3053 85.2372,12.4875 C85.2372,9.79784 82.9958,7.4924 80.1781,7.4924 Z M83.5722,12.5516 C83.5722,14.4087 82.0352,15.9457 80.1781,15.9457 C78.3209,15.9457 76.7839,14.4087 76.7839,12.5516 C76.7839,10.6944 78.3209,9.15744 80.1781,9.15744 C82.0993,9.15744 83.5722,10.6944 83.5722,12.5516 Z" id="Shape" fill="#293258"></path>
                <path d="M49.9508,7.557 C49.5025,7.557 49.1183,7.94124 49.1183,8.38952 L49.1183,8.8378 C47.069,6.98064 43.867,7.10872 42.0098,9.158 C40.1527,11.2073 40.2808,14.4093 42.33,16.2664 C44.2512,18.0596 47.1971,18.0596 49.1183,16.2664 L49.1183,16.7147 C49.1183,17.163 49.4385,17.5472 49.8867,17.5472 C50.335,17.5472 50.7193,17.227 50.7193,16.7788 L50.7193,16.7147 L50.7193,8.38952 C50.7833,7.94124 50.3991,7.557 49.9508,7.557 Z M49.1183,12.5521 C49.1183,14.4093 47.5813,15.9462 45.7241,15.9462 C43.867,15.9462 42.33,14.4093 42.33,12.5521 C42.33,10.695 43.867,9.158 45.7241,9.158 C47.6453,9.158 49.1183,10.695 49.1183,12.5521 Z" id="Shape" fill="#293258"></path>
                <path d="M58.7252,8.32492 C58.7252,8.7732 58.341,9.15744 57.8927,9.15744 L57.7646,9.15744 C55.9075,9.15744 54.3705,10.6944 54.3705,12.5516 C54.3065,12.7437 54.3705,15.3053 54.3705,16.8422 C54.3065,17.2905 53.9222,17.6107 53.474,17.5467 C53.0897,17.4826 52.7695,17.0984 52.7695,16.7142 L52.7695,8.38896 C52.7695,7.94068 53.1538,7.55644 53.602,7.55644 L53.6661,7.55644 C54.1144,7.62048 54.4346,7.94068 54.4346,8.38896 L54.4346,8.83724 C55.3311,8.00472 56.5479,7.4924 57.8287,7.4924 L57.9568,7.4924 C58.341,7.4924 58.7252,7.87664 58.7252,8.32492 Z" id="Path" fill="#293258"></path>
                <path d="M94.9074,11.7191 L94.9074,16.7142 C94.9074,17.1625 94.5231,17.5468 94.0749,17.5468 C93.6266,17.5468 93.2423,17.1625 93.2423,16.7142 L93.2423,15.8817 L93.2423,11.7191 C93.2423,10.3103 92.0896,9.15754 90.6807,9.15754 C90.6167,9.15754 90.5527,9.15754 90.4886,9.15754 C89.1438,9.22158 88.1191,10.4383 88.1191,11.7832 L88.1191,12.7438 L88.1191,15.8177 L88.1191,16.6502 C88.1191,17.0985 87.7349,17.4827 87.2866,17.4827 C86.8383,17.4827 86.4541,17.0985 86.4541,16.6502 L86.4541,8.38906 C86.4541,7.94078 86.8383,7.55654 87.2866,7.55654 C87.7349,7.55654 88.1191,7.94078 88.1191,8.38906 L88.1191,8.4531 C88.7595,7.94078 89.5921,7.62058 90.4886,7.55654 C92.7941,7.42846 94.7793,9.22158 94.8433,11.527 C94.9074,11.5911 94.9074,11.6551 94.9074,11.7191 Z" id="Path" fill="#293258"></path>
                <path d="M39.1283,4.61075 L39.1283,16.7783 C39.1283,17.2266 38.7441,17.6109 38.2958,17.6109 C37.8475,17.6109 37.4633,17.2266 37.4633,16.7783 L37.4633,11.2709 L29.1381,11.2709 L29.1381,16.7783 C29.1381,17.2266 28.7539,17.6109 28.3056,17.6109 C27.8573,17.6109 27.5371,17.2266 27.5371,16.7783 L27.5371,4.61075 C27.5371,4.16247 27.9213,3.77823 28.3696,3.77823 C28.8179,3.77823 29.2021,4.16247 29.2021,4.61075 L29.2021,9.92606 L37.5914,9.92606 L37.5914,4.61075 C37.5914,4.16247 37.9756,3.77823 38.4239,3.77823 C38.7441,3.84227 39.1283,4.16247 39.1283,4.61075 Z" id="Path" fill="#293258"></path>
                <path d="M73.9666,12.1034 L73.9666,16.7143 C73.9666,17.1626 73.5823,17.5468 73.134,17.5468 C72.6858,17.5468 72.3015,17.1626 72.3015,16.7143 L72.3015,12.5517 L72.3015,11.463 C72.3015,10.1822 71.3409,9.1576 70.0601,9.1576 C68.7793,9.1576 67.7547,10.1182 67.7547,11.399 C67.7547,11.463 67.7547,11.463 67.7547,11.5271 L67.7547,16.8424 C67.7547,17.2907 67.4345,17.6749 66.9862,17.6749 C66.5379,17.6749 66.1537,17.3547 66.1537,16.9064 L66.1537,16.8424 L66.1537,12.5517 L66.1537,11.463 C66.1537,10.1822 65.1931,9.1576 63.9123,9.1576 C62.6315,9.1576 61.6069,10.1182 61.6069,11.399 C61.6069,11.463 61.6069,11.463 61.6069,11.5271 L61.6069,16.8424 C61.6069,17.2907 61.2867,17.6749 60.8384,17.6749 C60.3901,17.6749 60.0059,17.3547 60.0059,16.9064 L60.0059,16.8424 L60.0059,8.5172 C60.0059,8.06892 60.3901,7.68468 60.8384,7.68468 C61.2226,7.68468 61.6069,8.00488 61.6709,8.38912 C63.4,7.17236 65.7695,7.49256 67.0503,9.1576 C68.3311,7.42852 70.8286,7.10832 72.4936,8.45316 C73.4542,9.22164 74.0306,10.3744 74.0306,11.5911 L73.9666,12.1034 Z" id="Path" fill="#293258"></path>
                <path d="M104.897,8.70961 L99.3896,20.621 C99.1334,21.0053 98.6211,21.1334 98.2369,20.8772 C97.9167,20.6851 97.7245,20.3008 97.8526,19.9166 L99.3255,16.7146 L95.6753,8.70961 C95.4191,8.32537 95.5472,7.81305 95.9314,7.55689 C96.3157,7.30073 96.828,7.42881 97.0841,7.81305 C97.0841,7.87709 97.1482,7.94113 97.1482,7.94113 L100.286,14.6653 L103.424,7.94113 C103.552,7.49285 104.065,7.30073 104.449,7.42881 C104.897,7.55689 105.089,8.06921 104.961,8.45345 C104.961,8.64557 104.897,8.70961 104.897,8.70961 Z" id="Path" fill="#293258"></path>
                <path d="M111.76,18 L112.09,13.755 L113.545,13.755 C113.935,13.755 114.245,13.82 114.475,13.95 C114.705,14.08 114.895,14.305 115.045,14.625 L115.045,14.625 L116.65,18 L118.735,18 L117.175,14.76 C117.035,14.44 116.87,14.185 116.68,13.995 C116.49,13.805 116.26,13.67 115.99,13.59 C117.87,13.31 118.81,12.24 118.81,10.38 C118.81,9.45 118.5125,8.725 117.9175,8.205 C117.3225,7.685 116.48,7.425 115.39,7.425 L115.39,7.425 L110.68,7.425 L109.855,18 L111.76,18 Z M114.91,12.27 L112.21,12.27 L112.465,8.925 L115.165,8.925 C115.785,8.925 116.245,9.0525 116.545,9.3075 C116.845,9.5625 116.995,9.955 116.995,10.485 C116.995,11.675 116.3,12.27 114.91,12.27 L114.91,12.27 Z M122.545,18.12 C122.995,18.12 123.4,18.02 123.76,17.82 C124.12,17.62 124.405,17.33 124.615,16.95 L124.615,16.95 L124.525,18 L126.31,18 L126.655,13.635 C126.665,13.525 126.67,13.37 126.67,13.17 C126.67,12.27 126.435,11.5975 125.965,11.1525 C125.495,10.7075 124.78,10.485 123.82,10.485 C123.26,10.485 122.69,10.5675 122.11,10.7325 C121.53,10.8975 121.045,11.115 120.655,11.385 L120.655,11.385 L121.075,12.675 C121.475,12.435 121.8875,12.2475 122.3125,12.1125 C122.7375,11.9775 123.135,11.91 123.505,11.91 C124.025,11.91 124.395,12.03 124.615,12.27 C124.835,12.51 124.925,12.88 124.885,13.38 L124.885,13.38 L124.87,13.665 L124.33,13.665 C123.28,13.665 122.44,13.7425 121.81,13.8975 C121.18,14.0525 120.7225,14.2975 120.4375,14.6325 C120.1525,14.9675 120.01,15.415 120.01,15.975 C120.01,16.385 120.1175,16.7525 120.3325,17.0775 C120.5475,17.4025 120.8475,17.6575 121.2325,17.8425 C121.6175,18.0275 122.055,18.12 122.545,18.12 Z M123.025,16.77 C122.665,16.77 122.3775,16.68 122.1625,16.5 C121.9475,16.32 121.84,16.08 121.84,15.78 C121.84,15.5 121.915,15.28 122.065,15.12 C122.215,14.96 122.4725,14.8425 122.8375,14.7675 C123.2025,14.6925 123.715,14.655 124.375,14.655 L124.375,14.655 L124.795,14.655 L124.765,14.985 C124.725,15.515 124.5425,15.945 124.2175,16.275 C123.8925,16.605 123.495,16.77 123.025,16.77 Z M130.6,18 L131.065,12.075 L133,12.075 L133.12,10.665 L131.185,10.665 L131.215,10.26 C131.255,9.76 131.3975,9.3975 131.6425,9.1725 C131.8875,8.9475 132.26,8.825 132.76,8.805 L132.76,8.805 L133.675,8.76 L133.63,7.365 L132.88,7.41 C131.75,7.47 130.8925,7.745 130.3075,8.235 C129.7225,8.725 129.395,9.45 129.325,10.41 L129.325,10.41 L129.31,10.665 L127.9,10.665 L127.795,12.075 L129.19,12.075 L128.725,18 L130.6,18 Z M135.97,18 L136.435,12.075 L138.37,12.075 L138.49,10.665 L136.555,10.665 L136.585,10.26 C136.625,9.76 136.7675,9.3975 137.0125,9.1725 C137.2575,8.9475 137.63,8.825 138.13,8.805 L138.13,8.805 L139.045,8.76 L139,7.365 L138.25,7.41 C137.12,7.47 136.2625,7.745 135.6775,8.235 C135.0925,8.725 134.765,9.45 134.695,10.41 L134.695,10.41 L134.68,10.665 L133.27,10.665 L133.165,12.075 L134.56,12.075 L134.095,18 L135.97,18 Z M140.83,18 L141.67,7.425 L139.795,7.425 L138.955,18 L140.83,18 Z M146.365,18.12 C146.895,18.12 147.415,18.035 147.925,17.865 C148.435,17.695 148.845,17.47 149.155,17.19 L149.155,17.19 L148.72,15.915 C148.05,16.425 147.305,16.68 146.485,16.68 C145.845,16.68 145.355,16.51 145.015,16.17 C144.675,15.83 144.49,15.33 144.46,14.67 L144.46,14.67 L149.47,14.67 C149.5,14.4 149.515,14.15 149.515,13.92 C149.515,12.8 149.23,11.9475 148.66,11.3625 C148.09,10.7775 147.315,10.485 146.335,10.485 C145.625,10.485 144.99,10.655 144.43,10.995 C143.87,11.335 143.4325,11.8125 143.1175,12.4275 C142.8025,13.0425 142.645,13.745 142.645,14.535 C142.645,15.255 142.7975,15.885 143.1025,16.425 C143.4075,16.965 143.84,17.3825 144.4,17.6775 C144.96,17.9725 145.615,18.12 146.365,18.12 Z M147.94,13.665 L144.52,13.665 C144.62,13.045 144.83,12.58 145.15,12.27 C145.47,11.96 145.89,11.805 146.41,11.805 C146.89,11.805 147.2675,11.96 147.5425,12.27 C147.8175,12.58 147.95,13.045 147.94,13.665 L147.94,13.665 Z" id="Raffe" fill="#293258" opacity="0.5"></path>
            </g>
        </g>
    </g>
</svg>